<svg xmlns="http://www.w3.org/2000/svg" xmlns:xlink="http://www.w3.org/1999/xlink" viewBox="0,0,256,256" width="40px" height="40px"><g fill="#00252e" fill-rule="nonzero" stroke="none" stroke-width="1" stroke-linecap="butt" stroke-linejoin="miter" stroke-miterlimit="10" stroke-dasharray="" stroke-dashoffset="0" font-family="none" font-weight="none" font-size="none" text-anchor="none" style="mix-blend-mode: normal"><path d="M0,256v-256h256v256z" id="bgRectangle"></path></g><g fill="none" fill-rule="nonzero" stroke="none" stroke-width="1" stroke-linecap="butt" stroke-linejoin="none" stroke-miterlimit="10" stroke-dasharray="" stroke-dashoffset="0" font-family="none" font-weight="none" font-size="none" text-anchor="none" style="mix-blend-mode: normal"><path transform="scale(8.53333,8.53333)" d="M27,15c0,6.627 -5.373,12 -12,12c-6.627,0 -12,-5.373 -12,-12c0,-6.627 5.373,-12 12,-12c6.627,0 12,5.373 12,12z" id="strokeMainSVG" fill="#ffffff" stroke="#ffffff" stroke-linejoin="round"></path><g transform="scale(8.53333,8.53333)" fill="#00252e" stroke="none" stroke-linejoin="miter"><path d="M15,3c-6.627,0 -12,5.373 -12,12c0,6.627 5.373,12 12,12c6.627,0 12,-5.373 12,-12c0,-6.627 -5.373,-12 -12,-12zM19.181,11h-1.729c-1.076,0 -1.452,0.568 -1.452,1.718v1.282h3.154l-0.428,3h-2.726v7.95c-0.329,0.032 -0.662,0.05 -1,0.05c-0.685,0 -1.354,-0.07 -2,-0.201v-7.799h-3v-3h3v-1.611c0,-3.05 1.486,-4.389 4.021,-4.389c1.214,0 1.856,0.09 2.16,0.131z"></path></g></g></svg>